<?xml version="1.0" encoding="UTF-8"?>
<svg version="1.1" xmlns="http://www.w3.org/2000/svg" width="950" height="548">
<path d="M0 0 C21.78 0 43.56 0 66 0 C66 21.78 66 43.56 66 66 C44.22 66 22.44 66 0 66 C0 44.22 0 22.44 0 0 Z " fill="#F8991D" transform="translate(854,364)"/>
<path d="M0 0 C21.78 0 43.56 0 66 0 C66 21.78 66 43.56 66 66 C44.22 66 22.44 66 0 66 C0 44.22 0 22.44 0 0 Z " fill="#F8991D" transform="translate(783,364)"/>
<path d="M0 0 C21.78 0 43.56 0 66 0 C66 21.78 66 43.56 66 66 C44.22 66 22.44 66 0 66 C0 44.22 0 22.44 0 0 Z " fill="#F8991D" transform="translate(713,364)"/>
<path d="M0 0 C21.78 0 43.56 0 66 0 C66 21.78 66 43.56 66 66 C44.22 66 22.44 66 0 66 C0 44.22 0 22.44 0 0 Z " fill="#F8991D" transform="translate(643,364)"/>
<path d="M0 0 C21.78 0 43.56 0 66 0 C66 21.78 66 43.56 66 66 C44.22 66 22.44 66 0 66 C0 44.22 0 22.44 0 0 Z " fill="#F8991D" transform="translate(433,364)"/>
<path d="M0 0 C21.78 0 43.56 0 66 0 C66 21.78 66 43.56 66 66 C44.22 66 22.44 66 0 66 C0 44.22 0 22.44 0 0 Z " fill="#F8991D" transform="translate(363,364)"/>
<path d="M0 0 C21.78 0 43.56 0 66 0 C66 21.78 66 43.56 66 66 C44.22 66 22.44 66 0 66 C0 44.22 0 22.44 0 0 Z " fill="#F8991D" transform="translate(152,364)"/>
<path d="M0 0 C21.78 0 43.56 0 66 0 C66 21.78 66 43.56 66 66 C44.22 66 22.44 66 0 66 C0 44.22 0 22.44 0 0 Z " fill="#F8991D" transform="translate(82,364)"/>
<path d="M0 0 C21.78 0 43.56 0 66 0 C66 21.78 66 43.56 66 66 C44.22 66 22.44 66 0 66 C0 44.22 0 22.44 0 0 Z " fill="#F8991D" transform="translate(854,294)"/>
<path d="M0 0 C21.78 0 43.56 0 66 0 C66 21.78 66 43.56 66 66 C44.22 66 22.44 66 0 66 C0 44.22 0 22.44 0 0 Z " fill="#F8991D" transform="translate(783,294)"/>
<path d="M0 0 C21.78 0 43.56 0 66 0 C66 21.78 66 43.56 66 66 C44.22 66 22.44 66 0 66 C0 44.22 0 22.44 0 0 Z " fill="#F8991D" transform="translate(713,294)"/>
<path d="M0 0 C21.78 0 43.56 0 66 0 C66 21.78 66 43.56 66 66 C44.22 66 22.44 66 0 66 C0 44.22 0 22.44 0 0 Z " fill="#F8991D" transform="translate(643,294)"/>
<path d="M0 0 C21.78 0 43.56 0 66 0 C66 21.78 66 43.56 66 66 C44.22 66 22.44 66 0 66 C0 44.22 0 22.44 0 0 Z " fill="#F8991D" transform="translate(433,294)"/>
<path d="M0 0 C21.78 0 43.56 0 66 0 C66 21.78 66 43.56 66 66 C44.22 66 22.44 66 0 66 C0 44.22 0 22.44 0 0 Z " fill="#F8991D" transform="translate(363,294)"/>
<path d="M0 0 C21.78 0 43.56 0 66 0 C66 21.78 66 43.56 66 66 C44.22 66 22.44 66 0 66 C0 44.22 0 22.44 0 0 Z " fill="#F8991D" transform="translate(152,294)"/>
<path d="M0 0 C21.78 0 43.56 0 66 0 C66 21.78 66 43.56 66 66 C44.22 66 22.44 66 0 66 C0 44.22 0 22.44 0 0 Z " fill="#F8991D" transform="translate(82,294)"/>
<path d="M0 0 C21.78 0 43.56 0 66 0 C66 21.78 66 43.56 66 66 C44.22 66 22.44 66 0 66 C0 44.22 0 22.44 0 0 Z " fill="#F8991D" transform="translate(713,224)"/>
<path d="M0 0 C21.78 0 43.56 0 66 0 C66 21.78 66 43.56 66 66 C44.22 66 22.44 66 0 66 C0 44.22 0 22.44 0 0 Z " fill="#F8991D" transform="translate(643,224)"/>
<path d="M0 0 C21.78 0 43.56 0 66 0 C66 21.78 66 43.56 66 66 C44.22 66 22.44 66 0 66 C0 44.22 0 22.44 0 0 Z " fill="#F8991D" transform="translate(433,224)"/>
<path d="M0 0 C21.78 0 43.56 0 66 0 C66 21.78 66 43.56 66 66 C44.22 66 22.44 66 0 66 C0 44.22 0 22.44 0 0 Z " fill="#F8991D" transform="translate(363,224)"/>
<path d="M0 0 C21.78 0 43.56 0 66 0 C66 21.78 66 43.56 66 66 C44.22 66 22.44 66 0 66 C0 44.22 0 22.44 0 0 Z " fill="#F8991D" transform="translate(152,224)"/>
<path d="M0 0 C21.78 0 43.56 0 66 0 C66 21.78 66 43.56 66 66 C44.22 66 22.44 66 0 66 C0 44.22 0 22.44 0 0 Z " fill="#F8991D" transform="translate(82,224)"/>
<path d="M0 0 C21.78 0 43.56 0 66 0 C66 21.78 66 43.56 66 66 C44.22 66 22.44 66 0 66 C0 44.22 0 22.44 0 0 Z " fill="#F8991D" transform="translate(713,154)"/>
<path d="M0 0 C21.78 0 43.56 0 66 0 C66 21.78 66 43.56 66 66 C44.22 66 22.44 66 0 66 C0 44.22 0 22.44 0 0 Z " fill="#F8991D" transform="translate(643,154)"/>
<path d="M0 0 C21.78 0 43.56 0 66 0 C66 21.78 66 43.56 66 66 C44.22 66 22.44 66 0 66 C0 44.22 0 22.44 0 0 Z " fill="#F8991D" transform="translate(433,154)"/>
<path d="M0 0 C21.78 0 43.56 0 66 0 C66 21.78 66 43.56 66 66 C44.22 66 22.44 66 0 66 C0 44.22 0 22.44 0 0 Z " fill="#F8991D" transform="translate(363,154)"/>
<path d="M0 0 C21.78 0 43.56 0 66 0 C66 21.78 66 43.56 66 66 C44.22 66 22.44 66 0 66 C0 44.22 0 22.44 0 0 Z " fill="#F8991D" transform="translate(152,154)"/>
<path d="M0 0 C21.78 0 43.56 0 66 0 C66 21.78 66 43.56 66 66 C44.22 66 22.44 66 0 66 C0 44.22 0 22.44 0 0 Z " fill="#F8991D" transform="translate(82,154)"/>
<path d="M0 0 C21.78 0 43.56 0 66 0 C66 21.78 66 43.56 66 66 C44.22 66 22.44 66 0 66 C0 44.22 0 22.44 0 0 Z " fill="#F8991D" transform="translate(854,13)"/>
<path d="M0 0 C21.78 0 43.56 0 66 0 C66 21.78 66 43.56 66 66 C44.22 66 22.44 66 0 66 C0 44.22 0 22.44 0 0 Z " fill="#F8991D" transform="translate(783,13)"/>
<path d="M0 0 C21.78 0 43.56 0 66 0 C66 21.78 66 43.56 66 66 C44.22 66 22.44 66 0 66 C0 44.22 0 22.44 0 0 Z " fill="#F8991D" transform="translate(713,13)"/>
<path d="M0 0 C21.78 0 43.56 0 66 0 C66 21.78 66 43.56 66 66 C44.22 66 22.44 66 0 66 C0 44.22 0 22.44 0 0 Z " fill="#F8991D" transform="translate(643,13)"/>
<path d="M0 0 C21.78 0 43.56 0 66 0 C66 21.78 66 43.56 66 66 C44.22 66 22.44 66 0 66 C0 44.22 0 22.44 0 0 Z " fill="#F8991D" transform="translate(503,13)"/>
<path d="M0 0 C21.78 0 43.56 0 66 0 C66 21.78 66 43.56 66 66 C44.22 66 22.44 66 0 66 C0 44.22 0 22.44 0 0 Z " fill="#F8991D" transform="translate(433,13)"/>
<path d="M0 0 C21.78 0 43.56 0 66 0 C66 21.78 66 43.56 66 66 C44.22 66 22.44 66 0 66 C0 44.22 0 22.44 0 0 Z " fill="#F8991D" transform="translate(363,13)"/>
<path d="M0 0 C21.78 0 43.56 0 66 0 C66 21.78 66 43.56 66 66 C44.22 66 22.44 66 0 66 C0 44.22 0 22.44 0 0 Z " fill="#F8991D" transform="translate(292,13)"/>
<path d="M0 0 C21.78 0 43.56 0 66 0 C66 21.78 66 43.56 66 66 C44.22 66 22.44 66 0 66 C0 44.22 0 22.44 0 0 Z " fill="#F8991D" transform="translate(152,13)"/>
<path d="M0 0 C21.78 0 43.56 0 66 0 C66 21.78 66 43.56 66 66 C44.22 66 22.44 66 0 66 C0 44.22 0 22.44 0 0 Z " fill="#F8991D" transform="translate(82,13)"/>
<path d="M0 0 C21.78 0 43.56 0 66 0 C66 21.45 66 42.9 66 65 C44.22 65 22.44 65 0 65 C0 43.55 0 22.1 0 0 Z " fill="#F8991D" transform="translate(854,84)"/>
<path d="M0 0 C21.78 0 43.56 0 66 0 C66 21.45 66 42.9 66 65 C44.22 65 22.44 65 0 65 C0 43.55 0 22.1 0 0 Z " fill="#F8991D" transform="translate(783,84)"/>
<path d="M0 0 C21.78 0 43.56 0 66 0 C66 21.45 66 42.9 66 65 C44.22 65 22.44 65 0 65 C0 43.55 0 22.1 0 0 Z " fill="#F8991D" transform="translate(713,84)"/>
<path d="M0 0 C21.78 0 43.56 0 66 0 C66 21.45 66 42.9 66 65 C44.22 65 22.44 65 0 65 C0 43.55 0 22.1 0 0 Z " fill="#F8991D" transform="translate(643,84)"/>
<path d="M0 0 C21.78 0 43.56 0 66 0 C66 21.45 66 42.9 66 65 C44.22 65 22.44 65 0 65 C0 43.55 0 22.1 0 0 Z " fill="#F8991D" transform="translate(503,84)"/>
<path d="M0 0 C21.78 0 43.56 0 66 0 C66 21.45 66 42.9 66 65 C44.22 65 22.44 65 0 65 C0 43.55 0 22.1 0 0 Z " fill="#F8991D" transform="translate(433,84)"/>
<path d="M0 0 C21.78 0 43.56 0 66 0 C66 21.45 66 42.9 66 65 C44.22 65 22.44 65 0 65 C0 43.55 0 22.1 0 0 Z " fill="#F8991D" transform="translate(363,84)"/>
<path d="M0 0 C21.78 0 43.56 0 66 0 C66 21.45 66 42.9 66 65 C44.22 65 22.44 65 0 65 C0 43.55 0 22.1 0 0 Z " fill="#F8991D" transform="translate(292,84)"/>
<path d="M0 0 C21.78 0 43.56 0 66 0 C66 21.45 66 42.9 66 65 C44.22 65 22.44 65 0 65 C0 43.55 0 22.1 0 0 Z " fill="#F8991D" transform="translate(152,84)"/>
<path d="M0 0 C21.78 0 43.56 0 66 0 C66 21.45 66 42.9 66 65 C44.22 65 22.44 65 0 65 C0 43.55 0 22.1 0 0 Z " fill="#F8991D" transform="translate(82,84)"/>
<path d="M0 0 C0.70298721 -0.00058411 1.40597443 -0.00116821 2.13026428 -0.00177002 C4.44111465 0.00100449 6.75065585 0.03206366 9.0612793 0.06347656 C10.66838374 0.07094127 12.27549732 0.07663312 13.88261414 0.08062744 C18.10292904 0.09586583 22.32268921 0.1351316 26.54278564 0.17944336 C31.61132596 0.22764813 36.68005224 0.24593869 41.74875641 0.26925659 C49.44055555 0.30798434 57.13113864 0.38464911 64.82299805 0.45410156 C64.82299805 21.24410156 64.82299805 42.03410156 64.82299805 63.45410156 C58.55299805 63.45410156 52.28299805 63.45410156 45.82299805 63.45410156 C45.82299805 48.27410156 45.82299805 33.09410156 45.82299805 17.45410156 C42.85299805 17.45410156 39.88299805 17.45410156 36.82299805 17.45410156 C36.82299805 32.63410156 36.82299805 47.81410156 36.82299805 63.45410156 C30.22299805 63.45410156 23.62299805 63.45410156 16.82299805 63.45410156 C16.82299805 48.27410156 16.82299805 33.09410156 16.82299805 17.45410156 C13.85299805 17.45410156 10.88299805 17.45410156 7.82299805 17.45410156 C7.82299805 32.63410156 7.82299805 47.81410156 7.82299805 63.45410156 C1.22299805 63.45410156 -5.37700195 63.45410156 -12.17700195 63.45410156 C-12.29001157 55.83064699 -12.38172234 48.20750464 -12.43606281 40.58341599 C-12.46214544 37.04308681 -12.4975162 33.50336088 -12.55419922 29.96337891 C-12.61897402 25.89251961 -12.64319306 21.82229284 -12.6652832 17.75097656 C-12.69108963 16.48106873 -12.71689606 15.21116089 -12.7434845 13.902771 C-12.74386215 12.72184875 -12.74423981 11.54092651 -12.74462891 10.32421875 C-12.75573196 9.28497253 -12.76683502 8.24572632 -12.77827454 7.17498779 C-12.17700195 4.45410156 -12.17700195 4.45410156 -10.09008789 2.11560059 C-6.46753302 0.04945098 -4.16024632 -0.02914358 0 0 Z " fill="#00AFD4" transform="translate(327.177001953125,468.5458984375)"/>
<path d="M0 0 C23.43 0 46.86 0 71 0 C71 5.61 71 11.22 71 17 C54.17 17 37.34 17 20 17 C20 18.98 20 20.96 20 23 C36.83 23 53.66 23 71 23 C71 28.61 71 34.22 71 40 C54.17 40 37.34 40 20 40 C20 41.98 20 43.96 20 46 C36.83 46 53.66 46 71 46 C71 51.61 71 57.22 71 63 C47.57 63 24.14 63 0 63 C0 42.21 0 21.42 0 0 Z " fill="#00AFD4" transform="translate(544,469)"/>
<path d="M0 0 C23.43 0 46.86 0 71 0 C71 5.61 71 11.22 71 17 C53.84 17 36.68 17 19 17 C19 18.98 19 20.96 19 23 C36.16 23 53.32 23 71 23 C71 28.61 71 34.22 71 40 C53.84 40 36.68 40 19 40 C19 41.98 19 43.96 19 46 C36.16 46 53.32 46 71 46 C71 51.61 71 57.22 71 63 C47.57 63 24.14 63 0 63 C0 42.21 0 21.42 0 0 Z " fill="#00AFD4" transform="translate(702,469)"/>
<path d="M0 0 C1.18488007 -0.00960754 2.36976013 -0.01921509 3.59054565 -0.02911377 C4.87180328 -0.03336365 6.15306091 -0.03761353 7.47314453 -0.04199219 C8.78880402 -0.04769226 10.1044635 -0.05339233 11.45999146 -0.05926514 C14.2457925 -0.06976438 17.03156477 -0.0756141 19.81738281 -0.07910156 C23.38063961 -0.08458475 26.943514 -0.10861301 30.50665092 -0.13707352 C33.91214145 -0.16021762 37.31757943 -0.16215056 40.72314453 -0.16699219 C42.0003537 -0.17933899 43.27756287 -0.19168579 44.59347534 -0.20440674 C45.78465973 -0.20140564 46.97584412 -0.19840454 48.203125 -0.1953125 C49.24886688 -0.19895813 50.29460876 -0.20260376 51.37203979 -0.20635986 C54.67754462 0.21853835 56.55825226 1.2013558 59.23095703 3.16113281 C60.48243281 5.66408438 60.37141517 7.38901041 60.39208984 10.18994141 C60.40169739 11.23797943 60.41130493 12.28601746 60.42120361 13.36581421 C60.42545349 14.50225372 60.42970337 15.63869324 60.43408203 16.80957031 C60.4397821 17.9736441 60.44548218 19.1377179 60.45135498 20.33706665 C60.46081425 22.80347787 60.46734263 25.26990177 60.47119141 27.73632812 C60.48089904 31.5135701 60.51191537 35.2902686 60.54345703 39.06738281 C60.54998665 41.46060874 60.55523728 43.85383857 60.55908203 46.24707031 C60.57142883 47.37946136 60.58377563 48.51185242 60.59649658 49.67855835 C60.59349548 50.7329007 60.59049438 51.78724304 60.58740234 52.87353516 C60.59287079 54.26347183 60.59287079 54.26347183 60.59844971 55.68148804 C60.1573568 58.65774793 59.30384937 60.00508317 57.23095703 62.16113281 C54.06378736 63.21685604 51.78913701 63.30050795 48.46191406 63.32226562 C47.277034 63.33187317 46.09215393 63.34148071 44.87136841 63.35137939 C43.59011078 63.35562927 42.30885315 63.35987915 40.98876953 63.36425781 C39.67311005 63.36995789 38.35745056 63.37565796 37.00192261 63.38153076 C34.21612156 63.39203 31.43034929 63.39787973 28.64453125 63.40136719 C25.08127445 63.40685037 21.51840007 63.43087864 17.95526314 63.45933914 C14.54977261 63.48248324 11.14433463 63.48441618 7.73876953 63.48925781 C5.82295578 63.50777802 5.82295578 63.50777802 3.86843872 63.52667236 C2.67725433 63.52367126 1.48606995 63.52067017 0.25878906 63.51757812 C-0.78695282 63.52122375 -1.8326947 63.52486938 -2.91012573 63.52862549 C-6.23807931 63.10084166 -8.11000857 62.18691882 -10.76904297 60.16113281 C-11.74858044 57.22252039 -11.90651661 55.28226408 -11.93017578 52.21826172 C-11.93978333 51.21356842 -11.94939087 50.20887512 -11.95928955 49.17373657 C-11.96353943 48.08934296 -11.96778931 47.00494934 -11.97216797 45.88769531 C-11.97786804 44.77180023 -11.98356812 43.65590515 -11.98944092 42.50619507 C-11.99889131 40.14411365 -12.00542505 37.78201905 -12.00927734 35.41992188 C-12.01898586 31.8073833 -12.05001079 28.1954129 -12.08154297 24.58300781 C-12.08807278 22.28874036 -12.09332334 19.99446884 -12.09716797 17.70019531 C-12.10951477 16.61985016 -12.12186157 15.539505 -12.13458252 14.42642212 C-12.10614704 4.84719592 -12.10614704 4.84719592 -8.76904297 1.16113281 C-5.6018733 0.10540959 -3.32722294 0.02175767 0 0 Z M8.23095703 17.16113281 C8.23095703 26.73113281 8.23095703 36.30113281 8.23095703 46.16113281 C18.79095703 46.16113281 29.35095703 46.16113281 40.23095703 46.16113281 C40.23095703 36.59113281 40.23095703 27.02113281 40.23095703 17.16113281 C29.67095703 17.16113281 19.11095703 17.16113281 8.23095703 17.16113281 Z " fill="#00AFD4" transform="translate(247.76904296875,468.8388671875)"/>
<path d="M0 0 C16.3109158 -0.08021762 16.3109158 -0.08021762 23.265625 -0.09765625 C28.01046219 -0.1096101 32.75522215 -0.12374913 37.5 -0.15087891 C41.32550147 -0.17261545 45.15092012 -0.18457034 48.97647858 -0.18975449 C50.43571527 -0.19344879 51.89494744 -0.20066283 53.35414886 -0.21146011 C55.39863365 -0.225986 57.44277657 -0.22797751 59.48730469 -0.22705078 C60.65090515 -0.231492 61.81450562 -0.23593323 63.0133667 -0.24050903 C65.93303884 -0.00539228 67.58628806 0.38040223 70 2 C71.70516262 5.41032523 71.20666529 9.30465609 71.23828125 13.05859375 C71.246353 13.95868668 71.25442474 14.8587796 71.26274109 15.78614807 C71.27658152 17.69180371 71.28730386 19.59748414 71.29516602 21.50317383 C71.31241146 24.42251179 71.35630085 27.34072682 71.40039062 30.25976562 C71.41051459 32.10936666 71.41903162 33.95897733 71.42578125 35.80859375 C71.44328934 36.68366074 71.46079742 37.55872772 71.47883606 38.46031189 C71.47591049 39.27448074 71.47298492 40.0886496 71.4699707 40.92749023 C71.47583694 41.64315659 71.48170319 42.35882294 71.48774719 43.09617615 C71 45 71 45 69.2686615 46.73324585 C66.6710345 48.1836847 65.18778298 48.3644176 62.23144531 48.34057617 C61.29077209 48.34034958 60.35009888 48.34012299 59.38092041 48.33988953 C58.37349792 48.32440567 57.36607544 48.30892181 56.328125 48.29296875 C55.29057068 48.28872391 54.25301636 48.28447906 53.184021 48.28010559 C49.87241592 48.26332223 46.56142093 48.22566992 43.25 48.1875 C41.00391504 48.17245275 38.75782054 48.15876442 36.51171875 48.14648438 C31.00757768 48.1134197 25.50389226 48.06163904 20 48 C20 52.95 20 57.9 20 63 C13.4 63 6.8 63 0 63 C0 42.21 0 21.42 0 0 Z M20 17 C20 21.62 20 26.24 20 31 C30.56 31 41.12 31 52 31 C52 26.38 52 21.76 52 17 C41.44 17 30.88 17 20 17 Z " fill="#00AFD4" transform="translate(806,469)"/>
<path d="M0 0 C16.27080699 -0.16043524 16.27080699 -0.16043524 23.21679688 -0.1953125 C27.95290087 -0.2192063 32.68869497 -0.2474449 37.42456055 -0.30175781 C41.24360864 -0.34528121 45.06232433 -0.36915069 48.88160133 -0.37950897 C50.33726038 -0.3868888 51.79290162 -0.4013002 53.24841881 -0.42292023 C55.29060267 -0.45204276 57.33142054 -0.45595264 59.3737793 -0.45410156 C60.53515915 -0.46298401 61.696539 -0.47186646 62.89311218 -0.48101807 C66.70232952 0.10873685 68.35353471 1.22873944 71 4 C71.62818909 5.97265625 71.62818909 5.97265625 71.63110352 8.0625 C71.64363663 8.85011719 71.65616974 9.63773437 71.66908264 10.44921875 C71.65582443 11.29097656 71.64256622 12.13273437 71.62890625 13 C71.63131821 13.87269531 71.63373016 14.74539063 71.63621521 15.64453125 C71.63523704 17.48702546 71.62185055 19.32954916 71.59692383 21.171875 C71.56261442 23.99059984 71.57626475 26.80618937 71.59570312 29.625 C71.5888045 31.41668 71.57913196 33.20835191 71.56640625 35 C71.57384605 36.26263672 71.57384605 36.26263672 71.58143616 37.55078125 C71.51096743 41.05553076 71.31068714 43.41793052 69.64526367 46.53808594 C65.31505268 48.93119193 60.9682423 48.48808188 56.109375 48.390625 C54.51974945 48.38213531 54.51974945 48.38213531 52.89801025 48.37347412 C49.51487972 48.3510924 46.13281016 48.30089098 42.75 48.25 C40.45574447 48.2299374 38.16147233 48.21168621 35.8671875 48.1953125 C30.24438318 48.15122143 24.62237144 48.08217993 19 48 C19 52.95 19 57.9 19 63 C12.73 63 6.46 63 0 63 C0 42.21 0 21.42 0 0 Z M19 17 C19 21.62 19 26.24 19 31 C29.56 31 40.12 31 51 31 C51 26.38 51 21.76 51 17 C40.44 17 29.88 17 19 17 Z " fill="#00AFD4" transform="translate(400,469)"/>
<path d="M0 0 C0.64446579 -0.00058411 1.28893158 -0.00116821 1.95292664 -0.00177002 C4.06903201 0.00100202 6.18370334 0.03204795 8.29956055 0.06347656 C9.77214285 0.07094219 11.24473512 0.07663361 12.71733093 0.08062744 C16.58256736 0.09585874 20.44719715 0.13511793 24.31219482 0.17944336 C28.26037389 0.22045075 32.20865152 0.23865006 36.15698242 0.25878906 C43.89622255 0.30161569 51.63483845 0.37194385 59.3737793 0.45410156 C59.3737793 6.06410156 59.3737793 11.67410156 59.3737793 17.45410156 C42.2137793 17.45410156 25.0537793 17.45410156 7.3737793 17.45410156 C7.3737793 27.02410156 7.3737793 36.59410156 7.3737793 46.45410156 C24.5337793 46.45410156 41.6937793 46.45410156 59.3737793 46.45410156 C59.3737793 52.06410156 59.3737793 57.67410156 59.3737793 63.45410156 C50.85479383 63.54454034 42.33618278 63.6178962 33.81684589 63.66135025 C29.86078847 63.68220808 25.90507705 63.71049192 21.94921875 63.75585938 C18.13017066 63.79938277 14.31145496 63.82325225 10.49217796 63.83361053 C9.03651892 63.84099037 7.58087768 63.85540177 6.12536049 63.87702179 C4.08317663 63.90614433 2.04235875 63.9100542 0 63.90820312 C-1.16137985 63.91708557 -2.3227597 63.92596802 -3.51933289 63.93511963 C-7.36591072 63.33958045 -8.9999447 62.30923368 -11.6262207 59.45410156 C-12.26113892 56.9119873 -12.26113892 56.9119873 -12.27319336 54.01464844 C-12.28895416 52.92671997 -12.30471497 51.8387915 -12.32095337 50.71789551 C-12.31083221 49.54803101 -12.30071106 48.3781665 -12.2902832 47.17285156 C-12.29506683 45.96721558 -12.29985046 44.76157959 -12.30477905 43.51940918 C-12.30818103 40.97077123 -12.29895806 38.42208983 -12.27807617 35.87353516 C-12.25131876 31.96841293 -12.27781809 28.06616544 -12.30981445 24.16113281 C-12.30651041 21.68586604 -12.30010431 19.21060106 -12.2902832 16.73535156 C-12.30040436 15.56548706 -12.31052551 14.39562256 -12.32095337 13.19030762 C-12.30519257 12.10237915 -12.28943176 11.01445068 -12.27319336 9.89355469 C-12.26921539 8.93743286 -12.26523743 7.98131104 -12.26113892 6.99621582 C-11.6262207 4.45410156 -11.6262207 4.45410156 -9.49992371 2.14251709 C-6.04137909 0.11048371 -3.99425382 -0.03054879 0 0 Z " fill="#F8991D" transform="translate(169.626220703125,468.5458984375)"/>
<path d="M0 0 C23.43 0 46.86 0 71 0 C71 5.61 71 11.22 71 17 C62.42 17 53.84 17 45 17 C45 32.18 45 47.36 45 63 C38.73 63 32.46 63 26 63 C26 47.82 26 32.64 26 17 C17.42 17 8.84 17 0 17 C0 11.39 0 5.78 0 0 Z " fill="#00AFD4" transform="translate(623,469)"/>
<path d="M0 0 C23.43 0 46.86 0 71 0 C71 5.61 71 11.22 71 17 C62.42 17 53.84 17 45 17 C45 32.18 45 47.36 45 63 C38.73 63 32.46 63 26 63 C26 47.82 26 32.64 26 17 C17.42 17 8.84 17 0 17 C0 11.39 0 5.78 0 0 Z " fill="#F8991D" transform="translate(79,469)"/>
<path d="M0 0 C6.6 0 13.2 0 20 0 C20 15.18 20 30.36 20 46 C32.87 46 45.74 46 59 46 C59 51.61 59 57.22 59 63 C39.53 63 20.06 63 0 63 C0 42.21 0 21.42 0 0 Z " fill="#00AFD4" transform="translate(478,469)"/>
<path d="M0 0 C6.27 0 12.54 0 19 0 C19 15.18 19 30.36 19 46 C31.87 46 44.74 46 58 46 C58 51.61 58 57.22 58 63 C38.86 63 19.72 63 0 63 C0 42.21 0 21.42 0 0 Z " fill="#00AFD4" transform="translate(885,469)"/>
<path d="M0 0 C6.27 0 12.54 0 19 0 C19 20.79 19 41.58 19 63 C12.73 63 6.46 63 0 63 C0 42.21 0 21.42 0 0 Z " fill="#F8991D" transform="translate(53,469)"/>
<path d="M0 0 C8.25 0 16.5 0 25 0 C25 8.91 25 17.82 25 27 C16.75 27 8.5 27 0 27 C0 18.09 0 9.18 0 0 Z " fill="#F8991D" transform="translate(10,213)"/>
<path d="M0 0 C8.25 0 16.5 0 25 0 C25 8.58 25 17.16 25 26 C16.75 26 8.5 26 0 26 C0 17.42 0 8.84 0 0 Z " fill="#F8991D" transform="translate(53,361)"/>
<path d="M0 0 C8.25 0 16.5 0 25 0 C25 8.58 25 17.16 25 26 C16.75 26 8.5 26 0 26 C0 17.42 0 8.84 0 0 Z " fill="#00AFD4" transform="translate(53,274)"/>
<path d="M0 0 C8.25 0 16.5 0 25 0 C25 8.58 25 17.16 25 26 C16.75 26 8.5 26 0 26 C0 17.42 0 8.84 0 0 Z " fill="#F8991D" transform="translate(10,274)"/>
<path d="M0 0 C8.25 0 16.5 0 25 0 C25 8.58 25 17.16 25 26 C16.75 26 8.5 26 0 26 C0 17.42 0 8.84 0 0 Z " fill="#F8991D" transform="translate(53,187)"/>
<path d="M0 0 C8.25 0 16.5 0 25 0 C25 8.58 25 17.16 25 26 C16.75 26 8.5 26 0 26 C0 17.42 0 8.84 0 0 Z " fill="#00AFD4" transform="translate(53,100)"/>
<path d="M0 0 C8.25 0 16.5 0 25 0 C25 8.58 25 17.16 25 26 C16.75 26 8.5 26 0 26 C0 17.42 0 8.84 0 0 Z " fill="#F8991D" transform="translate(53,13)"/>
<path d="M0 0 C8.25 0 16.5 0 25 0 C25 8.58 25 17.16 25 26 C16.75 26 8.5 26 0 26 C0 17.42 0 8.84 0 0 Z " fill="#F8991D" transform="translate(10,13)"/>
<path d="M0 0 C8.25 0 16.5 0 25 0 C25 8.25 25 16.5 25 25 C16.75 25 8.5 25 0 25 C0 16.75 0 8.5 0 0 Z " fill="#F8991D" transform="translate(53,405)"/>
<path d="M0 0 C8.25 0 16.5 0 25 0 C25 8.25 25 16.5 25 25 C16.75 25 8.5 25 0 25 C0 16.75 0 8.5 0 0 Z " fill="#F8991D" transform="translate(53,318)"/>
<path d="M0 0 C8.25 0 16.5 0 25 0 C25 8.25 25 16.5 25 25 C16.75 25 8.5 25 0 25 C0 16.75 0 8.5 0 0 Z " fill="#F8991D" transform="translate(53,231)"/>
<path d="M0 0 C8.25 0 16.5 0 25 0 C25 8.25 25 16.5 25 25 C16.75 25 8.5 25 0 25 C0 16.75 0 8.5 0 0 Z " fill="#F8991D" transform="translate(53,144)"/>
<path d="M0 0 C8.25 0 16.5 0 25 0 C25 8.25 25 16.5 25 25 C16.75 25 8.5 25 0 25 C0 16.75 0 8.5 0 0 Z " fill="#00AFD4" transform="translate(53,57)"/>
<path d="M0 0 C6.27 0 12.54 0 19 0 C19 6.93 19 13.86 19 21 C12.73 21 6.46 21 0 21 C0 14.07 0 7.14 0 0 Z " fill="#00AFD4" transform="translate(780,511)"/>
</svg>
